:SAMPLES-PER-SECOND 30
:FULLY-SPECIFIED
:DEGREES
362
root  45.2554 35.5412 27.663 -87.3157 86.8617 -131.892
RightUpLeg  -84.697 -18.0001 28.1674
RightLeg  44.4237 0.256929 -0.0506366
RightFoot  -3.01834 0.694347 -9.78747
RightToes  0.00048216 0.542163 -0.142577
Spine  74.3802 -4.70714 7.20254
Spine1  6.6375 2.31348 -7.57599
HEad  -46.2994 -7.21424 4.87105
LeftShoulder1  4.83111 -25.0744 -9.43059
LeftArm  -102.792 -58.7249 30.828
LeftForeArm  4.42411 -27.2863 -5.64391
LeftHand  -0.25398 0.0180481 5.50724
RightShoulder  2.1987 12.8552 5.70313
RightArm  -90.2642 48.7446 -22.5532
RightForeArm  -18.3897 21.3668 4.97784
RightHand  0.932405 12.4704 5.46547
LeftUpLeg  -85.7532 21.9963 -23.246
LeftLeg  46.2792 1.75758 2.39038
LeftFoot  -6.39061 -0.178813 5.02351
LeftToes  1.06244e-005 4.65856e-005 -8.18505e-006
363
root  45.1716 35.632 27.5315 -88.388 86.8848 -132.214
RightUpLeg  -83.9757 -18.5946 28.1582
RightLeg  43.8666 0.147376 -0.164243
RightFoot  -2.74091 0.734758 -9.98139
RightToes  0.00048216 0.542163 -0.142577
Spine  74.6948 -4.97331 7.28707
Spine1  6.7894 2.30048 -7.87939
HEad  -47.2832 -6.86394 4.23331
LeftShoulder1  4.65188 -24.9475 -8.81763
LeftArm  -100.395 -58.8713 28.4244
LeftForeArm  3.10964 -29.1184 -6.15041
LeftHand  -0.25398 0.0180481 5.50724
RightShoulder  2.25064 12.7616 6.14929
RightArm  -91.5749 47.9428 -22.3909
RightForeArm  -17.8316 22.4313 5.44015
RightHand  1.17321 12.1063 7.18067
LeftUpLeg  -85.1499 22.1708 -23.4008
LeftLeg  46.2029 1.76344 2.39123
LeftFoot  -5.72685 -0.226362 5.31706
LeftToes  1.06244e-005 4.65856e-005 -8.18505e-006
364
root  45.0396 35.7362 27.3742 -88.7678 86.7757 -132.108
RightUpLeg  -83.3844 -19.0452 28.4615
RightLeg  42.828 0.0695965 -0.239426
RightFoot  -2.20066 0.812133 -10.307
RightToes  0.00048216 0.542163 -0.142577
Spine  74.5948 -5.14309 7.38387
Spine1  6.7493 2.3269 -8.01818
HEad  -47.1899 -6.99897 3.59924
LeftShoulder1  4.58238 -24.7735 -8.65941
LeftArm  -97.7942 -59.119 25.8518
LeftForeArm  2.86839 -30.9111 -6.60823
LeftHand  -0.25398 0.0180481 5.50724
RightShoulder  2.34651 12.8472 6.72666
RightArm  -91.2017 46.9849 -22.0731
RightForeArm  -17.7112 24.2663 6.05632
RightHand  1.2152 10.7036 8.1702
LeftUpLeg  -84.7146 22.3022 -23.8207
LeftLeg  45.6836 1.70228 2.28586
LeftFoot  -5.28334 -0.277342 5.8394
LeftToes  1.06244e-005 4.65856e-005 -8.18505e-006
365
root  44.8553 35.8834 27.1967 -87.9361 86.5314 -130.826
RightUpLeg  -82.5372 -19.414 28.8279
RightLeg  41.2166 0.116035 -0.189067
RightFoot  -1.2834 0.936867 -10.6958
RightToes  0.00048216 0.542163 -0.142577
Spine  74.1987 -5.15154 7.46033
Spine1  6.6105 2.41184 -8.05092
HEad  -46.5915 -6.94962 2.91127
LeftShoulder1  4.62929 -24.8334 -8.8036
LeftArm  -94.9922 -59.261 23.4979
LeftForeArm  2.98123 -32.4769 -7.00613
LeftHand  -0.25398 0.0180481 5.50724
RightShoulder  2.44285 13.0032 7.22923
RightArm  -89.0524 46.0388 -21.1017
RightForeArm  -16.9509 26.2788 6.47685
RightHand  1.2556 9.73151 9.06401
LeftUpLeg  -84.1454 22.4445 -24.1797
LeftLeg  44.6633 1.59009 2.09535
LeftFoot  -4.71917 -0.349257 6.51914
LeftToes  1.06244e-005 4.65856e-005 -8.18505e-006
366
root  44.6178 36.0806 26.9976 -86.8332 86.2607 -128.903
RightUpLeg  -81.2152 -19.9509 29.0157
RightLeg  39.3594 0.223742 -0.0882122
RightFoot  -0.144809 1.09454 -11.1332
RightToes  0.00048216 0.542163 -0.142577
Spine  73.7871 -5.04017 7.44486
Spine1  6.4782 2.43135 -7.96346
HEad  -45.9717 -6.78358 2.45192
LeftShoulder1  4.76316 -25.0243 -9.20006
LeftArm  -92.6173 -59.4628 21.5657
LeftForeArm  2.88144 -33.6986 -7.33851
LeftHand  -0.25398 0.0180481 5.50724
RightShoulder  2.50635 13.1201 7.54075
RightArm  -85.9459 45.2678 -19.2119
RightForeArm  -16.8304 27.942 6.87395
RightHand  1.31865 8.5791 10.398
LeftUpLeg  -83.0416 22.6576 -24.2382
LeftLeg  43.2986 1.50477 1.92182
LeftFoot  -3.84946 -0.462875 7.40946
LeftToes  1.06244e-005 4.65856e-005 -8.18505e-006
367
root  44.3318 36.3038 26.782 -86.4871 86.0367 -127.3
RightUpLeg  -79.4133 -20.7785 29.0637
RightLeg  37.2454 0.321453 -0.0127481
RightFoot  0.744682 1.18067 -11.0571
RightToes  0.00048216 0.542163 -0.142577
Spine  73.3184 -4.81714 7.32026
Spine1  6.42372 2.42638 -7.69329
HEad  -45.5533 -6.73512 1.88125
LeftShoulder1  4.89818 -25.1019 -9.67102
LeftArm  -90.2233 -59.9318 19.097
LeftForeArm  2.76747 -34.6004 -7.59324
LeftHand  -0.25398 0.0180481 5.50724
RightShoulder  2.55293 13.1732 7.79944
RightArm  -81.5349 44.471 -16.4073
RightForeArm  -18.0453 29.5939 7.34607
RightHand  1.36545 7.48814 11.7577
LeftUpLeg  -81.3848 22.9468 -24.101
LeftLeg  41.7356 1.4701 1.79904
LeftFoot  -2.87011 -0.611858 8.47818
LeftToes  1.06244e-005 4.65856e-005 -8.18505e-006
368
root  44.0014 36.5487 26.5529 -88.7796 85.8466 -127.901
RightUpLeg  -77.1588 -21.9636 28.8813
RightLeg  34.8174 0.729643 0.281083
RightFoot  1.84738 1.25661 -10.7229
RightToes  0.00048216 0.542163 -0.142577
Spine  72.8533 -4.63229 7.16286
Spine1  6.37911 2.42804 -7.40499
HEad  -45.2025 -6.75044 1.0247
LeftShoulder1  5.05178 -25.2018 -10.195
LeftArm  -85.8584 -60.2513 15.2284
LeftForeArm  2.44753 -35.3011 -7.80897
LeftHand  -0.25398 0.0180481 5.50724
RightShoulder  2.67803 13.3693 8.42742
RightArm  -75.5647 43.1262 -12.7419
RightForeArm  -20.0725 31.9723 8.07072
RightHand  1.31981 6.37211 12.4836
LeftUpLeg  -79.1424 23.3075 -23.9108
LeftLeg  39.9364 1.36042 1.60699
LeftFoot  -1.91972 -0.76779 9.43684
LeftToes  1.06244e-005 4.65856e-005 -8.18505e-006
369
root  43.6341 36.8086 26.3132 -94.3066 85.6578 -131.165
RightUpLeg  -74.2184 -23.5234 28.16
RightLeg  32.1411 1.40739 0.702348
RightFoot  3.06536 1.26209 -9.79084
RightToes  0.00048216 0.542163 -0.142577
Spine  72.3758 -4.67465 6.9655
Spine1  6.68672 2.3899 -7.43831
HEad  -44.9134 -6.66673 0.423201
LeftShoulder1  5.19093 -25.4049 -10.5863
LeftArm  -79.0105 -59.8916 10.4589
LeftForeArm  1.40607 -35.9829 -8.06575
LeftHand  -0.25398 0.0180481 5.50724
RightShoulder  2.90199 13.7178 9.51972
RightArm  -69.106 41.1193 -8.36981
RightForeArm  -23.3128 35.2283 9.15092
RightHand  0.982106 4.0114 11.7297
LeftUpLeg  -76.2146 23.8299 -23.6381
LeftLeg  37.9827 1.06142 1.26704
LeftFoot  -0.997083 -0.909679 10.0897
LeftToes  1.06244e-005 4.65856e-005 -8.18505e-006
370
root  43.2355 37.0561 26.0537 -100.639 85.4115 -134.744
RightUpLeg  -70.8197 -25.2966 27.0904
RightLeg  29.557 2.02096 1.00093
RightFoot  4.4557 1.27493 -8.94155
RightToes  0.00048216 0.542163 -0.142577
Spine  71.7384 -4.75716 6.77519
Spine1  7.32125 2.30712 -7.50325
HEad  -44.2661 -6.93736 0.248068
LeftShoulder1  5.3622 -25.5913 -11.1056
LeftArm  -70.4762 -58.9527 4.99053
LeftForeArm  0.0439956 -36.9554 -8.43317
LeftHand  -0.25398 0.0180481 5.50724
RightShoulder  3.15512 13.9374 10.8979
RightArm  -62.8221 38.7248 -3.61759
RightForeArm  -25.3859 38.8484 10.3949
RightHand  0.731102 2.72183 10.1868
LeftUpLeg  -72.8347 24.5434 -23.1993
LeftLeg  36.0938 0.696876 0.915385
LeftFoot  -0.146441 -1.03901 10.5781
LeftToes  1.06244e-005 4.65856e-005 -8.18505e-006
371
root  42.8115 37.2628 25.7665 -105.264 85.0705 -136.504
RightUpLeg  -67.4886 -27.0728 26.222
RightLeg  27.1505 2.35361 1.07985
RightFoot  6.03292 1.38978 -8.79554
RightToes  0.00048216 0.542163 -0.142577
Spine  70.7225 -4.59227 6.66174
Spine1  7.84371 2.25568 -7.11743
HEad  -43.9324 -6.40947 -1.16808
LeftShoulder1  5.62304 -25.5873 -12.0942
LeftArm  -60.8721 -57.5648 -2.07957
LeftForeArm  -0.457551 -38.4627 -8.92649
LeftHand  -0.25398 0.0180481 5.50724
RightShoulder  3.41929 13.9166 12.6018
RightArm  -56.4707 35.9733 0.952638
RightForeArm  -26.4518 42.6563 11.8186
RightHand  0.553914 1.44675 9.24556
LeftUpLeg  -69.528 25.3486 -22.6505
LeftLeg  34.4495 0.413144 0.668209
LeftFoot  0.578021 -1.16537 11.092
LeftToes  1.06244e-005 4.65856e-005 -8.18505e-006
